<svg xmlns="http://www.w3.org/2000/svg" width="1920" height="256" viewBox="0 0 1920 256" role="img" aria-labelledby="title desc">
  <title id="title">PAIR Bridge — One bridge, many tools, your local models</title>
  <desc id="desc">Codex, Oh My Pi, and compatible MCP tools connect through PAIR Bridge to PAIR routing, LM Studio, local models, and devices.</desc>
  <defs>
    <linearGradient id="bg" x1="0" y1="0" x2="1" y2="1"><stop stop-color="#06152f"/><stop offset="1" stop-color="#0a2342"/></linearGradient>
    <linearGradient id="bridge" x1="0" y1="0" x2="1" y2="1"><stop stop-color="#104257"/><stop offset="1" stop-color="#0a2d43"/></linearGradient>
    <filter id="glow" x="-40%" y="-40%" width="180%" height="180%"><feGaussianBlur stdDeviation="5" result="b"/><feMerge><feMergeNode in="b"/><feMergeNode in="SourceGraphic"/></feMerge></filter>
  </defs>
  <rect width="1920" height="256" rx="24" fill="url(#bg)"/>
  <path d="M0 224H1920" stroke="#173b5a" stroke-width="2"/>
  <g opacity=".23" stroke="#46dfce" fill="none"><path d="M0 45H1920M0 86H1920M0 127H1920M0 168H1920"/><path d="M110 0V256M350 0V256M590 0V256M830 0V256M1070 0V256M1310 0V256M1550 0V256M1790 0V256"/></g>
  <g font-family="Inter,Segoe UI,Arial,sans-serif" fill="#eaf3ff">
    <g transform="translate(64 40)">
      <circle cx="50" cy="84" r="43" fill="#0c2945" stroke="#56e6ce" stroke-width="3"/>
      <circle cx="50" cy="84" r="8" fill="#56e6ce" filter="url(#glow)"/>
      <circle cx="24" cy="62" r="5" fill="#78a9ff"/><circle cx="76" cy="62" r="5" fill="#78a9ff"/><circle cx="24" cy="106" r="5" fill="#78a9ff"/><circle cx="76" cy="106" r="5" fill="#78a9ff"/>
      <path d="M29 66L44 79M71 66L56 79M29 102L44 89M71 102L56 89" stroke="#56e6ce" stroke-width="3"/>
      <text x="110" y="75" font-size="43" font-weight="750" letter-spacing="1">PAIR Bridge</text>
      <text x="112" y="113" font-size="21" fill="#a9bfd7" letter-spacing="2">ONE BRIDGE · MANY TOOLS · YOUR LOCAL MODELS</text>
    </g>
    <g transform="translate(898 43)">
      <rect width="950" height="122" rx="18" fill="#071b34" stroke="#274a68" stroke-width="2"/>
      <g font-size="17" font-weight="650" text-anchor="middle">
        <rect x="20" y="18" width="132" height="38" rx="10" fill="#122b46" stroke="#7baaff"/><text x="86" y="43">Codex</text>
        <rect x="164" y="18" width="132" height="38" rx="10" fill="#122b46" stroke="#7baaff"/><text x="230" y="43">Oh My Pi</text>
        <rect x="308" y="18" width="180" height="38" rx="10" fill="#122b46" stroke="#7baaff"/><text x="398" y="43">MCP tools</text>
        <rect x="20" y="67" width="468" height="36" rx="10" fill="url(#bridge)" stroke="#56e6ce" stroke-width="2"/><text x="254" y="91" font-size="20">PAIR Bridge · MCP server</text>
        <rect x="520" y="18" width="188" height="38" rx="10" fill="#102c40" stroke="#56e6ce"/><text x="614" y="43">PAIR router</text>
        <rect x="720" y="18" width="208" height="38" rx="10" fill="#102c40" stroke="#56e6ce"/><text x="824" y="43">LM Studio devices</text>
        <text x="724" y="91" font-size="16" fill="#a9bfd7">Installed models · context-aware checks · safe operations</text>
      </g>
      <g fill="none" stroke="#56e6ce" stroke-width="3" filter="url(#glow)"><path d="M86 57V63M230 57V63M398 57V63M488 85H510M614 57V67M824 57V67"/><path d="M510 85H520M510 85V85M708 37H720"/></g>
    </g>
  </g>
</svg>
